<?xml version="1.0" ?><svg id="Layer_1" style="enable-background:new 0 0 300 300;" version="1.1" viewBox="0 0 300 300" xml:space="preserve" xmlns="http://www.w3.org/2000/svg" xmlns:xlink="http://www.w3.org/1999/xlink"><g id="XMLID_1_"><path d="M299.6,88.9c-1.6-27.6-24.5-49.2-52.2-49.2H71.5c-4.5,0-8.5,2.5-10.4,6.6c-1.9,4.1-1.4,8.8,1.5,12.3   l34.6,42.4L108.8,243c0.8,9.7,9,17.3,18.8,17.3h89.9c9.7,0,18-7.6,18.8-17.3l13.9-169.5c8.2,1.2,14.8,7.7,15.9,16.1V167   c0,9.3,7.5,16.8,16.8,16.8s16.8-7.5,16.8-16.8V89.2L299.6,88.9z M289.6,167c0,3.8-3.1,6.8-6.8,6.8s-6.8-3.1-6.8-6.8V89.2l0-0.6   c-1.7-14.5-14-25.4-28.6-25.4c-3.7,0-6.7,2.9-7,6.6l-14.1,172.3c-0.4,4.5-4.2,8.1-8.8,8.1h-89.9c-4.6,0-8.4-3.6-8.8-8.1l-11.9-145   L70.3,52.3c-0.5-0.7-0.4-1.3-0.2-1.7c0.2-0.3,0.6-0.9,1.4-0.9h175.9c22.3,0,40.8,17.4,42.2,39.6V167z" id="XMLID_5_"/><path d="M71.7,136H13.6c-3.7,0-7.3,1.6-9.8,4.4c-2.5,2.8-3.7,6.5-3.4,10.2l9.9,97.7c0.7,6.8,6.4,11.9,13.2,11.9   h38.3c6.8,0,12.5-5.1,13.2-11.9l9.9-97.7c0.4-3.7-0.8-7.4-3.4-10.2S75.5,136,71.7,136z M75,149.6l-9.9,97.7   c-0.2,1.7-1.6,2.9-3.2,2.9H23.5c-1.7,0-3.1-1.3-3.2-2.9l-9.9-97.7c-0.1-1.3,0.5-2.1,0.8-2.5c0.4-0.4,1.2-1.1,2.4-1.1h58.1   c1.3,0,2.1,0.7,2.4,1.1C74.5,147.5,75.1,148.4,75,149.6z" id="XMLID_14_"/><path d="M222,109.9c-4.8-2.1-13-4.4-25.3-4.4c-8.3,0-17.1,2-26.6,4.1c-13.1,2.9-27.8,6.3-44.9,5.3   c-2.6-0.1-4.9,1.8-5.2,4.4l0,0.2c-0.3,2.8,1.8,5.2,4.6,5.4c2.3,0.1,4.6,0.2,6.8,0.2c15.5,0,28.8-3,40.9-5.7   c9.2-2.1,17.2-3.9,24.4-3.9c10.8,0,17.7,2,21.3,3.6c2,0.9,4.4,0.2,5.7-1.5l0.2-0.2C225.9,114.9,225,111.1,222,109.9z" id="XMLID_15_"/></g></svg>