<?xml version="1.0" encoding="utf-8"?>
<!-- Generator: Adobe Illustrator 16.0.0, SVG Export Plug-In . SVG Version: 6.00 Build 0)  -->
<!DOCTYPE svg PUBLIC "-//W3C//DTD SVG 1.1 Tiny//EN" "http://www.w3.org/Graphics/SVG/1.1/DTD/svg11-tiny.dtd">
<svg version="1.1" baseProfile="tiny" id="Layer_1" xmlns="http://www.w3.org/2000/svg" xmlns:xlink="http://www.w3.org/1999/xlink"
	 x="0px" y="0px" width="24px" height="24px" viewBox="0 0 24 24" xml:space="preserve">
<g>
	<path d="M6.997,2.75l0.917,9.308c0.021,0.205,0.192,0.361,0.398,0.361h7.334c0.206,0,0.378-0.156,0.398-0.361l0.899-9.227
		c0.015-0.049,0.141-0.491-0.215-0.976c-0.602-0.82-2.199-1.237-4.75-1.237S7.831,1.035,7.229,1.855
		C6.886,2.323,6.99,2.752,6.997,2.752C6.997,2.752,6.997,2.751,6.997,2.75z M7.897,2.299c0.217-0.265,1.047-0.88,4.082-0.88
		c3.034,0,3.865,0.615,4.081,0.879c0.139,0.17,0.118,0.296,0.104,0.374l-0.88,8.946H8.675l-0.893-9.01
		C7.779,2.595,7.759,2.469,7.897,2.299z"/>
	<path d="M16.538,13.618H7.42c-1.369,0-2.077,2.396-2.205,2.875c-0.009,0.034-0.014,0.068-0.014,0.104
		c0,0.708,0.585,1.284,1.303,1.284h5.075v2.911c-2.304,0.073-4.622,0.834-4.622,2.189c0,0.221,0.18,0.4,0.4,0.4h9.167
		c0.006,0,0.015,0,0.02,0c0.222,0,0.4-0.18,0.4-0.4c0-0.054-0.011-0.105-0.03-0.152c-0.164-1.246-2.344-1.944-4.534-2.027v-2.921
		h5.074c0.719,0,1.304-0.576,1.295-1.365C18.688,16.219,18.104,13.618,16.538,13.618z M7.985,22.581
		c0.531-0.491,1.962-0.995,3.957-0.995c1.993,0,3.424,0.504,3.955,0.995H7.985z M17.454,17.08H6.504c-0.261,0-0.477-0.192-0.5-0.438
		c0.257-0.918,0.867-2.224,1.416-2.224h9.118c0.723,0,1.273,1.521,1.419,2.178C17.957,16.863,17.731,17.08,17.454,17.08z"/>
	<path d="M18.979,6.618c-0.221,0-0.4,0.18-0.4,0.4v4.973c0,0.221,0.18,0.4,0.4,0.4s0.4-0.18,0.4-0.4V7.019
		C19.38,6.798,19.2,6.618,18.979,6.618z"/>
	<path d="M5.421,11.991V7.019c0-0.221-0.18-0.4-0.4-0.4s-0.4,0.18-0.4,0.4v4.973c0,0.221,0.18,0.4,0.4,0.4
		S5.421,12.212,5.421,11.991z"/>
</g>
</svg>
